{"title":"Sergeants 3  (Western Comedy 1962)  Frank Sinatra, Dean Martin &amp;","uid":9337066,"size":531762094,"categoryP":"video","categoryS":"movies","magnet":"?xt=urn:btih:259f3d0545eb436521a3e6edaa37748b64228224&amp;dn=Sergeants+3++%28Western+Comedy+1962%29++Frank+Sinatra%2C+Dean+Martin+%26&amp;tr=udp%3A%2F%2Ftracker.openbittorrent.com%3A80&amp;tr=udp%3A%2F%2Fopen.demonii.com%3A1337&amp;tr=udp%3A%2F%2Ftracker.coppersurfer.tk%3A6969&amp;tr=udp%3A%2F%2Fexodus.desync.com%3A6969","seeders":1,"leechers":2,"uploader":"BurtonW","files":1,"time":1386871270,"description":" &lt;a href=&quot;http://www.imdb.com/title/tt0056470/synopsis?ref_=tt_stry_pl&quot; rel=&quot;nofollow&quot; target=&quot;_NEW&quot;&gt;http://www.imdb.com/title/tt0056470/synopsis?ref_=tt_stry_pl&lt;/a&gt;\n\n\nA fairly good quality film.\n\n\nNo subtitles!\n\n\nStoryline:\n\nMike, Chip, and Larry are three lusty, brawling U. S. Cavalry sergeants stationed in Indian Territory in 1870. Mike and Chip are determined to prevent Larry from carrying out his decision to leave the Army at the end of his current hitch and marry beautiful Amelia Parent. One night the three cronies befriend a trumpet-playing former slave, Jonah Williams, who dreams of someday becoming a trooper. A tribe of fanatical Indians begins terrorizing the area, and the headstrong Chip decides to attempt the capture of their leader. Accompanied by Jonah, he sneaks into the Indians' secret meeting place while they are conducting one of their mysterious rites, but he is discovered and taken prisoner. Jonah, however, escapes and races back to tell Mike and Larry. When Larry insists upon going to Chip's rescue, Mike makes him sign a reenlistment paper &quot;just to make his help official&quot; and promises to destroy the paper after the mission. Mike, Larry, and Jonah make their way to the Indian stronghold, but they too end up as prisoners. As the Cavalry rides into a trap where a thousand warriors are waiting to ambush them, Jonah blows the regiment's favorite tune on his trumpet as a warning. The ensuing battle ends in victory for the Cavalry; the three sergeants are decorated, and Jonah is made a trooper. Thinking himself discharged, Larry drives off in a buggy with Amelia, but the crafty Mike shows the post's commanding officer the reenlistment paper he had promised to destroy. Larry, it appears, will be forced to serve another hitch with Mike and Chip.\n\n\nTechnical info:\n\n\nGeneral:\n\nComplete name:\n                  : Sergeants 3  (Western Comedy 1962)  Frank Sinatra, Dean Martin &amp; Sammy Davis Jr.mp4\n\nFormat                         : MPEG-4\nFormat profile                 : Base Media / Version 2\nCodec ID                       : mp42\nFile size                      : 507 MiB\nDuration                       : 1h 52mn\nOverall bit rate mode          : Variable\nOverall bit rate               : 629 Kbps\nEncoded date                   : UTC 2013-10-22 22:41:13\nTagged date                    : UTC 2013-10-22 23:44:09\n\nVideo:\n\nID                             : 1\nFormat                         : AVC\nFormat/Info                    : Advanced Video Codec\nFormat profile                 : &lt;a class=&quot;__cf_email__&quot; href=&quot;/cdn-cgi/l/email-protection&quot; data-cfemail=&quot;5419353d3a1418607a64&quot;&gt;[email&amp;#160;protected]&lt;/a&gt;&lt;script data-cfhash='f9e31' type=&quot;text/javascript&quot;&gt;\n/* &lt;![CDATA[ */!function(){try{var t=&quot;currentScript&quot;in document?document.currentScript:function(){for(var t=document.getElementsByTagName(&quot;script&quot;),e=t.length;e--;)if(t[e].getAttribute(&quot;data-cfhash&quot;))return t[e]}();if(t&amp;&amp;t.previousSibling){var e,r,n,i,c=t.previousSibling,a=c.getAttribute(&quot;data-cfemail&quot;);if(a){for(e=&quot;&quot;,r=parseInt(a.substr(0,2),16),n=2;a.length-n;n+=2)i=parseInt(a.substr(n,2),16)^r,e+=String.fromCharCode(i);e=document.createTextNode(e),c.parentNode.replaceChild(e,c)}t.parentNode.removeChild(t);}}catch(u){}}()/* ]]&gt; */&lt;/script&gt;\nFormat settings, CABAC         : Yes\nFormat settings, ReFrames      : 4 frames\nCodec ID                       : avc1\nCodec ID/Info                  : Advanced Video Coding\nDuration                       : 1h 52mn\nBit rate mode                  : Variable\nBit rate                       : 464 Kbps\nWidth                          : 720 pixels\nHeight                         : 304 pixels\nDisplay aspect ratio           : 2.35:1\nFrame rate mode                : Variable\nFrame rate                     : 23.976 fps\nMinimum frame rate             : 23.974 fps\nMaximum frame rate             : 90 000.000 fps\nColor space                    : YUV\nChroma subsampling             : 4:2:0\nBit depth                      : 8 bits\nScan type                      : Progressive\nBits/(Pixel*Frame)             : 0.088\nStream size                    : 374 MiB (74%)\nWriting library                : x264 core 130 r2273 b3065e6\nEncoding settings              : Deleted\nEncoded date                   : UTC 2013-10-22 22:41:13\nTagged date                    : UTC 2013-10-22 23:44:09\nColor primaries                : BT.601 NTSC\nTransfer characteristics       : BT.709\nMatrix coefficients            : BT.601\n\nAudio:\n\nID                             : 2\nFormat                         : AAC\nFormat/Info                    : Advanced Audio Codec\nFormat profile                 : LC\nCodec ID                       : 40\nDuration                       : 1h 52mn\nBit rate mode                  : Variable\nBit rate                       : 160 Kbps\nMaximum bit rate               : 262 Kbps\nChannel(s)                     : 2 channels\nChannel positions              : Front: L R\nSampling rate                  : 48.0 KHz\nCompression mode               : Lossy\nDelay relative to video        : 83ms\nStream size                    : 129 MiB (25%)\nEncoded date                   : UTC 2013-10-22 22:41:13\nTagged date                    : UTC 2013-10-22 23:44:08\n\n","torrent":{"xt":"urn:btih:259f3d0545eb436521a3e6edaa37748b64228224","amp;dn":"Sergeants+3++%28Western+Comedy+1962%29++Frank+Sinatra%2C+Dean+Martin+%26","amp;tr":["udp%3A%2F%2Ftracker.openbittorrent.com%3A80","udp%3A%2F%2Fopen.demonii.com%3A1337","udp%3A%2F%2Ftracker.coppersurfer.tk%3A6969","udp%3A%2F%2Fexodus.desync.com%3A6969"],"infoHash":"259f3d0545eb436521a3e6edaa37748b64228224","infoHashBuffer":{"type":"Buffer","data":[37,159,61,5,69,235,67,101,33,163,230,237,170,55,116,139,100,34,130,36]},"announce":[],"urlList":[]}}